<svg xmlns="http://www.w3.org/2000/svg" width="32" height="34.135" viewBox="0 0 32 34.135">
    <defs>
        <style>
            .cls-1{fill:#fff}
        </style>
    </defs>
    <path id="_040-enviroment" d="M31.895 6.355A27.093 27.093 0 0 0 30.753.678 1 1 0 0 0 29.781 0a26.941 26.941 0 0 0-5.694.891C19.948 2 16.8 3.955 14.977 6.555a13.449 13.449 0 0 0-2.237 6.967 20.5 20.5 0 0 0-4.832-1.895 26.746 26.746 0 0 0-5.7-.857 1 1 0 0 0-.964.675 26.73 26.73 0 0 0-1.138 5.646c-.4 4.262.351 7.89 2.173 10.492s4.971 4.558 9.111 5.662a26.949 26.949 0 0 0 5.694.892h.026a1 1 0 0 0 .938-.658c0-.007.005-.013.008-.02a27.079 27.079 0 0 0 1.144-5.677 21.081 21.081 0 0 0-.079-4.929c3.615-.723 8.064-2.344 10.6-5.973a12.658 12.658 0 0 0 2.046-5.286 20.769 20.769 0 0 0 .128-5.239zM3.917 26.435c-3.144-4.491-1.608-11.4-.991-13.622 4.4.343 9.863 1.883 12.46 5.591 2.676 3.822 1.962 9.423 1.31 12.391l-3.126-4.483.916-5.194a1 1 0 0 0-1.97-.347l-.567 3.216L7.6 17.752A1 1 0 0 0 5.963 18.9l4.33 6.212-3.171-.559a1 1 0 1 0-.347 1.969l5.133.9 3.146 4.514c-2.998-.415-8.464-1.683-11.137-5.501zm24.167-10.7c-2.251 3.215-6.526 4.586-9.376 5.161a13.116 13.116 0 0 0-.515-1.5l1.871-2.672 5.163-.91a1 1 0 1 0-.347-1.97l-3.193.563 4.35-6.207A1 1 0 0 0 24.4 7.048l-4.351 6.214-.563-3.194a1 1 0 0 0-1.97.347l.91 5.163-1.29 1.842c-.037-.055-.073-.11-.111-.164a11.582 11.582 0 0 0-2.325-2.432A12.221 12.221 0 0 1 16.615 7.7c3.143-4.489 10.15-5.454 12.461-5.652.624 2.246 2.159 9.184-.992 13.685zm0 0" class="cls-1" data-name="040-enviroment" transform="translate(-.001 -.001)"/>
</svg>
