<svg xmlns="http://www.w3.org/2000/svg" width="27.664" height="28.287" viewBox="0 0 27.664 28.287">
    <defs>
        <style>
            .cls-1{fill:#fff}.cls-2{fill:#fafafa}
        </style>
    </defs>
    <g id="parking">
        <path id="Path_437" d="M21.654 14.98a6.184 6.184 0 0 0-1.464.139v4.6a5.507 5.507 0 0 0 1.186.092c1.875 0 3.031-.949 3.031-2.545.001-1.43-.995-2.286-2.753-2.286z" class="cls-1" data-name="Path 437" transform="translate(-8.072 -5.758)"/>
        <path id="Path_438" d="M24.819 0H3.857A3.35 3.35 0 0 0 .506 3.351v21.586a3.35 3.35 0 0 0 3.351 3.35h20.962a3.35 3.35 0 0 0 3.35-3.35V3.351A3.349 3.349 0 0 0 24.819 0zm1.286 24.4a1.822 1.822 0 0 1-1.823 1.823H4.355A1.823 1.823 0 0 1 2.532 24.4V3.927A1.823 1.823 0 0 1 4.355 2.1h19.927A1.823 1.823 0 0 1 26.1 3.927V24.4z" class="cls-2" data-name="Path 438" transform="translate(-.506)"/>
        <path id="Path_439" d="M26.35 5.507H6.423a.538.538 0 0 0-.538.537v20.473a.538.538 0 0 0 .538.537H26.35a.538.538 0 0 0 .537-.537V6.044a.537.537 0 0 0-.537-.537zM20.974 17.24a7.245 7.245 0 0 1-5.074 1.642 9.281 9.281 0 0 1-1.209-.07V24.4h-3.467V9a28.77 28.77 0 0 1 4.76-.324 7.471 7.471 0 0 1 4.764 1.25 4.559 4.559 0 0 1 1.664 3.609 4.98 4.98 0 0 1-1.438 3.705z" class="cls-1" data-name="Path 439" transform="translate(-2.574 -2.117)"/>
    </g>
</svg>
